<svg width="1903" height="1903" viewBox="0 0 1903 1903" fill="none" xmlns="http://www.w3.org/2000/svg">
<g clipPath="url(#clip0_1361_1879)">
<rect width="1903" height="1903" rx="900" fill="#D4D4D4"/>
<path d="M1095.91 316.916C1095.91 316.916 1557.96 389.333 1522.92 1048.83C1522.79 1051.27 1576.34 1086.89 1580.54 1090.69C1617.88 1124.52 1649.21 1167.85 1662.91 1218.53C1711.69 1399 1537.28 1584.95 1396.24 1634.31C1343.56 1652.74 1287.87 1661.69 1232.08 1663.32C869.371 1673.9 389.167 1442.98 364.504 992.008C363.621 975.828 363.403 959.63 363.818 943.47C366.005 857.841 386.636 774.448 417.731 697.017C417.717 697.02 619.579 195.479 1095.91 316.916Z" fill="#643D19"/>
<g style="mix-blend-mode:multiply" opacity="0.5">
<path d="M1534.62 1055.79C1529.61 1068.07 1524.62 1083.76 1523.22 1092.74C1517.26 1131.24 1530.41 1170.99 1553.25 1199.57C1574.94 1226.7 1605.92 1244.3 1635.91 1250.94C1646.04 1253.18 1658.3 1254.33 1669.03 1254.69C1657.76 1143.2 1567.14 1076.31 1534.62 1055.79Z" fill="#F4A494"/>
</g>
<g style="mix-blend-mode:multiply" opacity="0.5">
<path d="M883.313 1348.81C969.138 1330.32 1022.42 1239.74 1002.33 1146.5C982.236 1053.25 896.372 992.662 810.548 1011.16C724.723 1029.65 671.437 1120.23 691.531 1213.47C711.625 1306.71 797.488 1367.31 883.313 1348.81Z" fill="#F4A494"/>
</g>
<path opacity="0.3" d="M1303.48 1088.01C1303.48 1088.01 1376.78 1018.16 1433.52 1083.83L1303.48 1088.01Z" fill="#452811"/>
<path d="M620.07 1436.09C376.085 1558.57 154.643 1251.42 225.572 1078.76C270.817 968.631 402.74 960.069 479.186 1060.67C524.3 1120.04 560.806 1195.93 581.533 1268.53" fill="#643D19"/>
<path opacity="0.3" d="M419.113 1161.99C450.506 1193.99 475.74 1241.44 506.758 1267.92C501.024 1223.62 491.874 1176.32 470.396 1136.41C448.588 1095.86 408.928 1062.47 368.547 1065.22C318.502 1068.64 277.297 1127.02 272 1179.95C275.166 1148.28 338.779 1126.84 363.06 1129.84C401.081 1201.62 415.803 1343.11 415.803 1343.11C447.476 1263.01 434.652 1200.01 419.113 1161.99Z" fill="#452811"/>
<path d="M1076.08 1036.22C1107.14 1035.66 1138.23 1046.85 1165.74 1063.56C1182.23 1046.7 1190.17 1017.9 1183.97 987.816C1175.27 945.592 1142.38 917.28 1110.51 924.587C1078.64 931.895 1059.87 972.055 1068.57 1014.28C1070.2 1022.2 1072.91 1029.44 1076.08 1036.22Z" fill="#2A1200"/>
<path d="M1483.17 1041.37C1487.75 1031.25 1490.44 1018.9 1490.18 1005.4C1489.55 971.852 1471.58 944.79 1450.05 944.975C1428.52 945.146 1411.58 972.491 1412.21 1006.05C1412.56 1024.5 1418.27 1040.79 1426.8 1051.87C1444.77 1044.9 1463.86 1041.57 1483.17 1041.37Z" fill="#2A1200"/>
<path d="M1192.64 788.344C1144.52 780.519 1092.96 798.497 1058.34 834.962C1047.18 846.719 1044.06 867.571 1055.72 880.847C1066.49 893.129 1086.09 896.886 1098.04 884.284C1101.62 880.507 1105.36 876.927 1109.32 873.609C1110.56 872.575 1113.98 870.741 1115.06 869.215C1115.66 868.819 1116.24 868.423 1116.86 868.039C1120.64 865.659 1124.53 863.481 1128.51 861.505C1130.79 860.375 1133.09 859.328 1135.42 858.335C1136.15 858.025 1136.89 857.73 1137.64 857.434C1139.69 857.078 1142.03 855.971 1143.9 855.462C1146.33 854.796 1148.77 854.213 1151.24 853.698C1155.55 852.802 1159.9 852.126 1164.27 851.687C1164.89 851.625 1165.49 851.578 1166.1 851.53C1168.46 851.542 1170.81 851.498 1173.18 851.593C1178.2 851.802 1183.21 852.362 1188.19 853.162C1203.74 855.697 1219.86 840.39 1220.33 823.579C1220.81 805.073 1209.3 791.058 1192.64 788.344Z" fill="#71472D"/>
<path d="M1515.69 843.606C1498.22 819.564 1472.54 803.788 1444.85 799.208C1437.37 797.973 1428.64 800.838 1422.81 805.826C1417.07 810.738 1412.24 819.398 1411.74 827.482C1411.23 835.875 1412.88 844.881 1418.13 851.481C1423.44 858.174 1430.11 862.424 1438.22 863.776C1439.55 863.994 1440.85 864.369 1442.17 864.657C1446.07 866.003 1449.85 867.667 1453.53 869.618C1457.72 872.452 1461.64 875.672 1465.31 879.275C1466.5 880.706 1467.77 882.077 1468.88 883.599C1473.67 890.178 1481.35 894.866 1488.97 895.894C1496.28 896.876 1505.36 894.529 1511.01 889.261C1516.85 883.81 1521.54 876.252 1522.08 867.606C1522.61 858.987 1520.76 850.57 1515.69 843.606Z" fill="#71472D"/>
<mask id="mask0_1361_1879" style="mask-type:alpha" maskUnits="userSpaceOnUse" x="1424" y="594" width="233" height="395">
<path d="M1518.33 988.175C1516.5 815.393 1478.05 688.016 1424.87 594.309C1488.8 594.309 1623.69 626.31 1651.83 754.317C1679.96 882.324 1574.55 963.559 1518.33 988.175Z" fill="#C4C4C4"/>
</mask>
<g mask="url(#mask0_1361_1879)">
<ellipse cx="1452.89" cy="802.084" rx="156.492" ry="156.492" fill="#2B1200"/>
</g>
<path fillRule="evenodd" clipRule="evenodd" d="M1468.71 735.098C1424.75 735.098 1384.89 717.084 1355.74 687.848C1326.25 717.084 1285.94 735.098 1241.49 735.098C1185.5 735.098 1136.08 706.511 1106.59 662.915C1073.71 706.786 1021.8 735.098 963.385 735.098C937.653 735.098 913.182 729.604 891.045 719.706C870.536 772.914 826.248 813.98 771.484 829.373C776.885 846.78 779.797 865.311 779.797 884.534C779.797 936.494 758.516 983.398 724.336 1016.72C721.353 1152.56 658.398 1223.02 619.442 1243.43C610.064 1251.05 570.208 1248.7 570.208 1248.7C558.256 1193.67 515.433 1091.1 430.533 1040.35C424.053 1041.07 417.471 1041.44 410.803 1041.44C311.418 1041.44 230.85 959.483 230.85 858.383C230.85 806.12 252.38 758.972 286.91 725.617C258.812 693.324 241.756 650.859 241.756 604.342C241.756 507.584 315.552 428.359 409.014 421.732C410.72 322.149 489.808 241.961 587.121 241.961C613.236 241.961 638.038 247.736 660.385 258.111C688.218 193.612 751.557 148.564 825.24 148.564C865.793 148.564 903.214 162.21 933.306 185.234C965.249 136.096 1019.72 103.733 1081.54 103.733C1156.16 103.733 1220.07 150.888 1246.58 217.783C1269.35 206.926 1294.72 200.867 1321.47 200.867C1419.85 200.867 1499.61 282.825 1499.61 383.925C1499.61 391.189 1499.2 398.354 1498.4 405.398C1573.56 419.725 1630.48 487.457 1630.48 568.851C1630.48 660.667 1558.05 735.098 1468.71 735.098Z" fill="#2B1200"/>
<path d="M1403.12 1239.42C1413.73 1245.51 1487.87 1152.41 1537.23 1180.73C1553.89 1190.29 1566.61 1206.6 1576.16 1224.22C1597.13 1262.98 1604.31 1310.08 1595.86 1353.52C1583.9 1414.96 1542.45 1465.24 1493.69 1498.58C1362.49 1588.25 1258.41 1571.3 1118.38 1519.39C1008.16 1478.54 857.976 1394.44 889.089 1242.71C943.854 975.62 1402.98 1239.34 1403.12 1239.42Z" fill="#873C41"/>
<path d="M1023.28 1222.34C1058.94 1244.48 1102.35 1246.76 1141.29 1237.93C1148.73 1236.24 1154.72 1242.49 1156.58 1249.68C1175.59 1323.54 1283.38 1362.09 1337.44 1314.73C1341.63 1311.05 1349.08 1310.18 1353.47 1314.35C1382.65 1342.03 1429.39 1349.54 1463.72 1330.81C1512.2 1304.37 1511.96 1230.07 1498.76 1178.33C1456.03 1191.38 1411.18 1244.04 1403.12 1239.4C1403.01 1239.34 1121.16 1077.49 972.777 1135.88C975.924 1171.75 992.394 1203.17 1023.28 1222.34Z" fill="white"/>
<path d="M1427.55 1509.65C1350.45 1438.91 1255.66 1399.4 1159.54 1371.36C1077.33 1347.37 984.768 1331.83 901.555 1355.63C940.116 1438.39 1039.34 1490.08 1118.38 1519.38C1240.87 1564.78 1335.86 1583.43 1445.54 1527.38C1439.56 1521.45 1433.74 1515.34 1427.55 1509.65Z" fill="#EE7E8B"/>
</g>
<defs>
<clipPath id="clip0_1361_1879">
<rect width="1903" height="1903" rx="900" fill="white"/>
</clipPath>
</defs>
</svg>
